<svg xmlns="http://www.w3.org/2000/svg" version="1.1" xmlns:xlink="http://www.w3.org/1999/xlink" xmlns:svgjs="http://svgjs.dev/svgjs" viewBox="0 0 800 800"><g fill="none" stroke-width="1" stroke="hsl(0, 0%, 100%)" stroke-linecap="round"><path d="M1747.94 445.18C1871.59 472 2039.67 493.78 2158.89 510.56 2165.16 527.27 2054.66 538.93 1887.56 545.63 1751.51 552.43 1716.55 554.68 1797.04 553.05 2020.23 551.53 2022.52 551.85 1789.6 565.58 1683.77 586.21 1680.45 617.2 1775.11 661.02 1920.36 716.77 2043.66 785.86 2086.69 867.19 2028.73 953.79 1892.85 1044.44 1735.86 1132.57 1619.67 1207.96 1588.57 1266.44 1648 1300.61 1769.19 1306.96 1896.5 1284.54 1976 1236.03 1975.25 1173.5 1891.03 1105.52 1753.02 1047.17 1606.34 1016.22 1499.74 1021.54 1463.36 1070.39 1503.26 1158.83 1598.51 1276.48 1711.2 1404.13 1803.05 1514.89 1839.52 1588.68 1808.11 1608.37 1715.46 1571.92 1586.12 1489.98 1453.31 1387.42 1346.7 1301.18 1290.32 1259.84 1290.89 1285.21 1342.8 1377.43 1425.8 1515.78 1514.54 1662.11 1587.68 1770.19 1623.45 1807.95 1613.37 1763.18 1558.03 1657.55 1466.86 1533.11 1356.06 1444.42 1240.56 1436.04 1139.34 1518.77 1064.35 1668.16 1021.47 1826.31 1012.79 1931.79 1033.05 1940.41 1076.8 1852.57 1131.63 1711.35 1186.77 1588.42 1236.58 1551.59 1270.3 1625.55 1284.01 1782.91 1277.45 1949.37 1249.54 2045.43 1203.75 2022.86 1142.39 1897.89 1071.24 1740.39 995.45 1642.45 915.89 1666.4 839.31 1805.03 768.44 1985.77 701.93 2107.05 643.98 2100.92 594.5 1971.83 551.46 1802.16 515.96 1697.87 486.48 1729.61 461.95 1882.72 441.19 2064.8 422.58 2161.54 406.67 2111.77 390.97 1948.24 374.33 1779.86 358.74 1722.6 341.07 1817.02 320.66 2002.64 300.5 2153.47 277.12 2165.73 250.3 2029.02 223.48 1839.57 193.53 1730.08 160.73 1774.32 128.15 1940.55 93.21 2112.15 56.55 2172.31 20.95 2081.07 -15.19 1898.4 -50.73 1743.36 -83.56 1713.57 -113.83 1823.84 -139.88 1998.36 -160.98 2125.08 -175.61 2121 -182.23 1988.26 -182.4 1804.95 -173.63 1678.62 -155.78 1678.06 -133.57 1798.06 -105.13 1961.69 -73.18 2070.54 -44.99 2061.09 -20.9 1935.01 -6.01 1759.16 -6.71 1622.3 -24.7 1591.46 -63.42 1673.52 -122.42 1820.51 -200.83 1949.86 -294.68 1993.43 -393.86 1927.22 -492.08 1779.26 -578.55 1615.41 -641.53 1503.4 -674.9 1487.12 -673.36 1563.52 -639.69 1693.48 -579.11 1812.99 -503.5 1868.23 -432.59 1834.32 -380.56 1720.8 -363.6 1568.83 -391.89 1428.09 -465.27 1345.07 -575.2 1339.66 -700.73 1406.29 -819.72 1513.06 -906.79 1617.91 -942.5 1685.5 -920.45 1689.09 -847.27 1626.78 -747.92 1512.8 -651.15 1377.07 -590.16 1251.83 -590.42 1161.47 -657.66 1123.49 -779.34 1137.86 -921.86 1195.81 -1046 1275.86 -1113.83 1355.2 -1105.37 1417.31 -1025.73 1444.33 -905.01 1431.08 -792.96 1378.91 -733.69 1295.8 -756.87 1194.78 -860.29 1085.81 -1010.49 984.63 -1153.5 900.71 -1234.76 838.01 -1224.42 801.16 -1127.89 788 -990.55 796.47 -873.24 819.9 -832.71 851.48 -893.17 889.56 -1032.76 924.95 -1193.15 953.54 -1302.95 976.72 -1313.6 988.73 -1220.54 989.64 -1071.79 982.03 -940.59 964.59 -895.64 939.47 -964.04 908.06 -1115.01 872.06 -1275.14 833.66 -1363.49 792.1 -1335.13 750.61 -1204.38 710.62 -1042.58 669.51 -936.1 631.2 -945.05 596.39 -1066.96 561.35 -1236.4 530.29 -1360.05 503.47 -1368.5 476.65 -1257.28 454.39 -1089.02 436.45 -955.12 418.29 -927.03 403.98 -1016.72 392.84 -1245.15 375.41 -1217.5 339.78 -983.04 313.1 -894.21 287.64 -915.5 254.95 -1031.01 212.9 -1182.25 162.34 -1291.84 101.16 -1306.43 29.32 -1217.86 -47.93 -1064.79 -131.46 -914.16 -217.14 -828.28 -296.33 -840.09 -366.81 -937.38 -421.76 -1074.83 -455.09 -1188.12 -464.14 -1227.63 -446.72 -1175.43 -408.09 -1049.56 -351.6 -897.13 -286.67 -771.24 -229.69 -715.01 -189.97 -741.51 -180.52 -835.71 -209.99 -956.28 -279.05 -1056.02 -382.5 -1099.06 -503.17 -1066.56 -623.85 -968.04 -721.69 -830.72 -775.95 -694.84 -777.12 -596.23 -725.14 -557.09 -638.28 -582.32 -540.14 -656.76 -462.96 -756.45 -437.44 -847.4 -477.01 -902.89 -579.75 -908 -719.75 -858.1 -860.84 -764.33 -960.92 -643.81 -988.96 -521.6 -938.51 -419.25 -829.46 -350.96 -709.15 -325.71 -626.39 -340.98 -622.3 -390.02 -707.36 -457.11 -855.76 -526.26 -1013.65 -586.39 -1117.99 -622.9 -1128.67 -629.89 -1042.63 -606.43 -904.74 -554.21 -781.74 -480.26 -739.43 -390.16 -806.91 -294.83 -959.14 -202.63 -1127.96 -117.28 -1231.86 -46.59 -1221.8 7.3 -1104.61 44.58 -948.42 65.09 -840.88 71.83 -848.83 65.86 -975.1 52.21 -1155.03 34.75 -1290.17 12.78 -1304.78 -7.5 -1192.44 -23.95 -1021.92 -39.22 -901.92 -48.36 -909.38 -51.14 -1046.43 -50.9 -1231.3 -44.53 -1350.73 -32.84 -1328.83 -18.68 -1181.68 -0.44 -1005.61 20.87 -919.62 43.45 -985.04 67.95 -1160.63 93.63 -1329.57 119.64 -1376.55 146.19 -1268.47 173.01 -1079.03 199.83 -942.27 226.61 -953.12 253.56 -1101.23 280.86 -1284.18 308.99 -1374.63 338.64 -1312.12 369.56 -1138.45 403.18 -968.3 440.46 -910.63 480.22 -999.47 524.88 -1172.41 575.22 -1315.2 628.58 -1336.63 687.85 -1220.79 752.77 -1038.35 818.88 -896.46 888.35 -876.32 958.97 -982.44 1025.09 -1148.04 1086.89 -1270.39 1140.46 -1276.95 1181.32 -1161.61 1207.87 -985.55 1217.07 -840.9 1209.65 -798.64 1184.86 -873.92 1144.8 -1018.55 1097.9 -1154.1 1047.25 -1205.2 1001.19 -1144.47 971.27 -997.63 962.45 -831.44 981.7 -717.63 1031.42 -700.26 1109.97 -778.77 1211.44 -908.98 1321.93 -1030.47 1429.65 -1084.32 1518.57 -1046.13 1573.73 -927.63 1587.63 -772.42 1557.71 -635.11 1493.73 -558.66 1409.13 -563.82 1325.4 -638.44 1268.43 -751.32 1254.53 -855.37 1294.78 -912.45 1385.42 -902.69 1510.69 -825.38 1643.82 -702.35 1751.7 -562.99 1809.51 -443.44 1802.04 -368.6 1735.1 -349.9 1629.99 -384.53 1522.5 -455.39 1453.8 -543.15 1450.21 -620.18 1521.17 -667.29 1648.84 -674.82 1796.37 -638.11 1916.52 -564.46 1968.98 -463.39 1937.7 -352.01 1835.73 -245.45 1707.23 -152.89 1604.25 -85.78 1573.88 -46.82 1635.21 -35.69 1769.26 -48.26 1926.36 -77.17 2043.31 -118.81 2073.69 -162.41 2005.24 -201.4 1803.65 -245.61 1753.33 -249.26 1979.13 -211.15 2107.41 -172.71 2140.28 -127.63 2061.8 -78.86 1913.66 -25.48 1770.84 27.98 1709.32 79.71 1764.86 132.79 1911.52 182.4 2075.22 227.85 2170.21 273.38 2146.14 314.36 2014.93 350.61 1849.35 386.81 1739.49 418.36 1747.94 445.18Q1747.94 445.18 1747.94 445.18" opacity="0.55"></path><path d="M1636.94 453.66C1749.14 478.56 1905.34 507.79 2030.12 541.16 2065.35 574.43 1993.9 611.57 1850.07 652.15 1699.54 692.06 1610.3 734.55 1619.89 778.58 1721.96 820.42 1867.35 861.85 1989.78 901.07 2035.86 935.24 1983.77 964.19 1855.7 985.61 1645.66 1000.36 1667.92 963.19 1858.55 913.92 1949.95 877.01 1962.95 839.18 1892.09 806.1 1761.39 786.4 1616.69 782.57 1506.27 800.13 1463.95 841.56 1499.39 906.97 1594.1 993.93 1713.6 1092.82 1812.78 1196.73 1857.43 1293.52 1832.25 1368.62 1742.54 1413.8 1614.18 1421.21 1480.66 1391.65 1377.99 1330.16 1329.44 1249.42 1342.93 1171.42 1408.67 1112.93 1503.17 1092.72 1600.29 1122.21 1669.93 1200.74 1693.49 1317.33 1664.41 1446.92 1587.29 1563.61 1478.53 1639.44 1357.35 1655.94 1247.73 1610.63 1167.32 1517.43 1126.2 1409.63 1127.58 1321.62 1164.84 1287.63 1228.71 1326.21 1301.93 1431.56 1369.02 1576.03 1419.78 1713.67 1442.32 1801.87 1433.34 1810.47 1393.62 1739.66 1327.71 1617.69 1244.02 1495.1 1149.09 1427.48 1054.34 1446.74 967.78 1553.42 893.21 1708.52 836.9 1852.68 799.8 1926.63 781.49 1900.55 780.02 1788 791.39 1642.44 814.27 1537.44 842.26 1526.02 871.2 1621.02 901.47 1781.49 926.82 1933.99 945.43 2004.92 959.38 1960.64 964.85 1824.93 962.27 1670.06 953.91 1582.51 938.6 1611.89 917.78 1748.08 892.68 1920.16 864.04 2036.56 833.31 2032.86 800.26 1912.53 766.76 1743.71 733.85 1625.05 700.02 1628.81 667.76 1754.83 637.66 1931.47 607.35 2054.16 579.62 2049.28 554.72 1918.02 529.81 1740.9 508.02 1625.89 489.14 1640.58 470.06 1775.02 453.45 1946.52 438.78 2053.07 423.18 2033.11 408.52 1897.47 393.8 1723.81 376.77 1608.08 358.02 1612.4 336.15 1729.36 310.01 1892.43 278.76 2008.59 241.02 2014.38 197.49 1905.7 146.36 1737.83 87.23 1594.97 23.43 1545.15 -46.62 1608.3 -121.09 1746.35 -194.23 1888.83 -265.92 1961.5 -331.96 1928.48 -386.49 1802.9 -427.63 1640.33 -451.39 1510.41 -456.34 1464.74 -441.52 1517.11 -407.84 1637.07 -362.17 1770.35 -307.72 1855.07 -252.46 1854.68 -208.44 1767.03 -181.57 1623.84 -180.23 1476.75 -209.64 1374.13 -269.91 1348.29 -357.71 1399.83 -461.84 1505.58 -571.4 1621.38 -670.91 1704.23 -743.8 1725.78 -780.1 1675.39 -773.14 1567.84 -726.91 1430.77 -650.7 1301.96 -562.16 1212.07 -486.05 1178.59 -440.79 1204.08 -442.77 1273.85 -497.38 1367.3 -597.26 1454.39 -723.79 1511.84 -847.7 1526.47 -942.01 1491.93 -983.2 1415.61 -962.35 1309.4 -886.51 1193.32 -778.92 1085.7 -676.5 998.96 -611.82 945 -610.74 925.88 -679.49 939.96 -801.84 979.03 -943.56 1032.23 -1060.49 1092.5 -1117.18 1146.13 -1095.12 1185.34 -1004.97 1207.63 -879.55 1207.62 -767.1 1186.39 -714.49 1145.82 -744.73 1089.74 -852.32 1023.44 -999.68 948.52 -1133.72 872.13 -1203.3 798.21 -1182.27 725.87 -1079.96 660.72 -939.43 603.62 -823.22 552.25 -781.89 509.13 -837.58 473.11 -969.61 442.31 -1123.48 416.63 -1232.85 394.44 -1249.74 375.36 -1166.62 357.68 -1021.02 340.09 -882.11 323.8 -814.39 306.24 -852.12 286.63 -979.39 267.32 -1136.85 245.35 -1249.05 220.45 -1261.24 195.55 -1167.69 168 -1014.44 138.12 -873.82 108.54 -811.32 77.24 -853.57 45.01 -979.77 14.1 -1128.93 -16.37 -1231.99 -45.06 -1242.95 -70.63 -1155.68 -92.34 -1008.7 -108.51 -863.87 -119.45 -781.62 -122.88 -792.75 -117.62 -889.57 -106.63 -1027.12 -87.14 -1145.85 -59.98 -1197.09 -31.24 -1157.66 0.43 -1042.68 31.14 -894.06 53.24 -766.52 65.62 -703.58 63.03 -723.87 41.11 -814.47 -1.49 -937.4 -65.85 -1047.48 -147.11 -1101.72 -242.23 -1080.53 -343.39 -989.13 -437.48 -855.6 -516.85 -720.31 -570.59 -620.59 -591.15 -583.22 -576.23 -612.72 -527.87 -696.13 -458.64 -802.62 -380.28 -897.74 -311.11 -954.18 -271.83 -952.63 -273.64 -892.91 -323.9 -787.7 -416.99 -661.83 -538.98 -542.89 -666.6 -453.2 -770.54 -409.72 -829.46 -415.5 -828.62 -465.02 -771.38 -541.36 -674.43 -624.15 -568.42 -696.49 -491.92 -739.57 -471.77 -744.74 -522.72 -710.45 -634.97 -641.17 -779.34 -547.99 -912.79 -441.74 -992.04 -338.22 -993.04 -249.19 -916.36 -161.63 -736.13 -158.98 -691.13 -218.77 -900.56 -269.25 -1042.74 -316.29 -1116.38 -354.03 -1091 -381.09 -981.35 -391.93 -838.05 -386.34 -730.72 -365.54 -715.93 -330.44 -805.82 -284.21 -964.47 -227.97 -1118.71 -166.24 -1197.02 -102.27 -1161.28 -35.35 -1032.49 29.45 -877.59 90.54 -780.75 150.16 -798.38 204.43 -925.26 253.28 -1097.94 299.41 -1224.53 340.47 -1237.36 377.18 -1128.96 411.74 -962.61 443.05 -833.07 471.92 -817.99 499.71 -929.43 526.08 -1104.65 551.62 -1241.61 576.87 -1258.85 601.85 -1145.15 626.75 -968.03 651.66 -836.73 676.19 -830.53 700.13 -950.69 723.78 -1124.84 746.27 -1247.17 766.99 -1246.05 786.63 -1122.5 803.48 -947.55 816.68 -819.89 827.75 -808.85 834.07 -916.75 834.9 -1079.21 833.03 -1205.82 825.3 -1224.48 811.79 -1125.1 796.81 -958.37 777.66 -809.68 755.93 -751.31 737.14 -808.16 720.11 -945.5 708.08 -1089.8 706.05 -1168.64 714.64 -1140.02 737.01 -1016.78 774.57 -852.97 828.03 -721.13 897.15 -674.75 976.95 -728.42 1065.48 -851.31 1156.85 -984.2 1241.33 -1068.69 1314.03 -1064.79 1367.07 -973.1 1394.43 -826.41 1393.65 -679.4 1364.38 -582.64 1313.74 -565.28 1247.94 -626.63 1178.73 -736.57 1122.59 -853.34 1089.66 -930.14 1091.01 -939.33 1131.81 -875.95 1209.81 -757.71 1316.32 -618.86 1433.27 -494.6 1543.03 -417.4 1625.19 -401.24 1663.61 -444.42 1651.99 -527.68 1593.36 -623.1 1505.48 -705.53 1409.86 -749.16 1334.05 -743.03 1303.74 -687.2 1330.75 -592.37 1414.89 -477.34 1537.71 -359.55 1671.04 -260.33 1780.37 -192.37 1835.81 -161.39 1823.47 -167.5 1747.86 -202.93 1636.67 -260.05 1526.32 -323.66 1457.13 -381.65 1458.16 -427.73 1533.65 -451.66 1663.99 -451.05 1807.19 -426.56 1917.06 -380.12 1955.61 -317.27 1910.92 -241.03 1800.62 -159.51 1668.18 -78.4 1569.39 1.5 1545.09 73.35 1610.38 135.32 1743.17 188.88 1893.69 231.45 2002.38 264.35 2025.37 289.04 1953.87 306.65 1818.66 319.45 1681.28 327.21 1602.49 333.15 1620.75 339.09 1731.1 342.83 1886.39 348.49 2017.52 357.09 2064.7 365.02 2005.92 376.73 1867.8 392.66 1717.03 408.48 1624.74 428.75 1636.94 453.66Q1636.94 453.66 1636.94 453.66" opacity="0.70"></path><path d="M1525.92 257.66C1626.92 280.64 1770.19 300.2 1896.29 316.54 1954.94 333.09 1921.79 346.86 1811.11 358.43 1605.3 376.63 1574.97 415.05 1760.79 441.48 1873.71 464.82 1921.64 493.63 1887.16 529.44 1782.04 571.57 1642.79 621.93 1516.68 680.91 1444.13 744.91 1446.91 815.46 1519.45 890.41 1635.49 963.49 1752.46 1034.28 1830.56 1098.06 1844.58 1148.66 1787.98 1183.94 1677.76 1199.83 1544.42 1195.64 1425.91 1170.79 1352.85 1127.35 1341.77 1073.89 1391.18 1014.83 1482.22 959.69 1588.48 921.23 1676.83 905.68 1722.65 920.69 1713.77 968.68 1650.31 1047.35 1547.12 1149.43 1425.28 1259.48 1311.58 1363.98 1227.76 1445.81 1187.31 1490.18 1194.75 1490.46 1242.88 1446.36 1319.57 1370.61 1404.08 1279.39 1477.37 1196.25 1525.93 1146.83 1537.64 1145.97 1510.42 1200.91 1447.69 1302.72 1359.05 1431.38 1257.62 1557.13 1154.66 1647.33 1064.55 1680.28 996.3 1646.91 954.52 1560.31 941.55 1447.26 954.16 1346.11 988.84 1295.3 1036.65 1315.12 1089.21 1406.15 1141.92 1542.24 1185.11 1682.42 1214.1 1780.53 1227.83 1803.42 1223.01 1744.63 1200.82 1626.81 1162.78 1499.05 1111.87 1412.14 1052.05 1405.63 984.52 1487.55 914.81 1629.92 846.12 1778.85 777.98 1874.44 715.1 1878.83 658.61 1790.31 606.82 1650.29 562.3 1520.98 524.46 1463.77 491.71 1509.06 464.47 1639.76 441.47 1799.23 422.12 1914.44 405.29 1932.5 389.78 1844.29 369.44 1624.68 326.6 1626.07 301.09 1857.23 283.52 1951.63 263.33 1932.02 240.34 1807.01 217.35 1642.6 191.84 1524.96 164.01 1513.62 136.35 1613.37 106.76 1770.81 75.72 1904.98 45.48 1949.34 14.64 1880.89 -15.91 1733.99 -44.49 1578.67 -71.4 1488.37 -95.4 1502.4 -115.76 1611.48 -131.49 1760.47 -141.3 1878.14 -146.03 1910.61 -143.65 1841.23 -133.57 1700.63 -118.79 1547.6 -97.18 1446.06 -69.84 1434.28 -41.95 1513.08 -12.57 1644.25 15.1 1770.06 35.09 1838.93 46.65 1820.25 45.87 1720.87 29.24 1575.88 -4.23 1437.75 -55.7 1352.83 -122.45 1346.4 -202.83 1415 -292.15 1528.3 -381.33 1645.28 -465.18 1721.19 -535.29 1729.74 -583.33 1666.71 -605.18 1550.02 -597.6 1413.73 -563.54 1293.33 -506.99 1220.88 -436.92 1210.36 -368.38 1259.63 -311.97 1348.65 -280.77 1448.52 -285.1 1532.54 -327.65 1574.74 -406.35 1564.3 -509.76 1502.35 -623.69 1401.81 -729.05 1283.67 -805.84 1168.04 -841.2 1077.08 -827.89 1023.45 -771.22 1012.05 -683.89 1039.75 -587.62 1095.56 -510.01 1168.38 -471.3 1240.04 -486.36 1296.94 -556.12 1331.43 -667.58 1335.31 -796.09 1308.72 -909.38 1254.35 -980.18 1179.14 -989.6 1092.02 -937.05 998.71 -838.16 909.98 -723.52 832.18 -632.01 767.5 -593.2 720.7 -624.07 691.49 -719.02 678.94 -851.9 680.55 -982.89 692.43 -1070.37 713.88 -1087.11 738.9 -1027.54 764.03 -914.4 790.55 -787.13 812.67 -692.96 829.01 -669.43 842.37 -727.29 848.79 -849.07 848.64 -1047.68 840.06 -1037.56 794.77 -839.12 763.17 -732.99 740.22 -703.28 716.42 -764.24 692.5 -892.63 668.28 -1037.07 644.53 -1138.07 621.54 -1153.32 598.56 -1076.57 576.59 -940.5 555.42 -800.28 533.93 -712.12 512.62 -709.41 490.8 -791.99 467.76 -924.7 443.03 -1054.12 415.57 -1130.78 385.53 -1123.79 351.28 -1036.27 311.76 -899.96 268.56 -764.33 219.18 -676.56 163.26 -665.3 104.36 -731.1 40.1 -846.87 -28.12 -971.34 -94.96 -1058.19 -161.25 -1077.33 -223.5 -1021.78 -276.19 -908.37 -318.15 -772.6 -345.44 -654.07 -356.08 -587.35 -348.63 -588.07 -322.79 -652.52 -283.81 -756.42 -233.39 -865.57 -177.82 -947.95 -128.44 -976.7 -90.42 -943.41 -72.65 -855.49 -82.67 -734.93 -122.57 -610.96 -192.48 -510.44 -284.81 -455.45 -391.3 -453.83 -498.3 -502.15 -588.31 -583.72 -649.59 -675.81 -671.09 -757.49 -650.37 -806.87 -591.65 -812.91 -507.56 -773.65 -420.96 -695.48 -351.26 -592.74 -319.42 -480.73 -339.09 -378.64 -410.69 -300.52 -523.37 -254.67 -651.9 -245.04 -768.85 -267.86 -845.28 -317.32 -861.93 -380.83 -815.86 -446.14 -721.05 -525.19 -564.36 -536.73 -561.24 -464.52 -749.96 -391.88 -885.52 -309.68 -975.53 -224.89 -989.63 -140.96 -925.24 -65.48 -806.74 -1.86 -680.44 49.29 -599.75 85.52 -598.84 107.86 -684.54 117.15 -827.19 115.85 -974.27 106.96 -1068.04 90.59 -1071.23 71.54 -983.68 52.36 -843.63 31.52 -715.99 13.86 -658.55 0.52 -701.94 -11.19 -830.54 -17.53 -989.46 -18.58 -1107.44 -17.22 -1130.37 -11 -1047.92 -0.58 -899.35 11.66 -759.17 27.13 -696.34 45.11 -745.21 64.01 -883.9 84.54 -1044.79 106.2 -1146.87 128.1 -1137.88 150.63 -1021.44 173.62 -857.04 196.61 -731.99 219.78 -711.16 243.29 -803.23 267.04 -960.43 291.61 -1100.3 317.49 -1152.08 344.29 -1090.54 373.26 -945.89 405.11 -789.04 438.79 -694.06 476.31 -704.27 518.3 -810.58 562.7 -961.18 612.02 -1081.97 666.29 -1116.35 722.2 -1048.21 782 -906.94 844.55 -753.94 905.44 -652.43 965.76 -642.82 1022.93 -723.45 1072.62 -857.43 1114.26 -983.9 1144.81 -1048.99 1162.31 -1025.66 1165.42 -920.97 1153.08 -774.51 1128.28 -637.97 1091.1 -559.54 1044.91 -561.91 997.87 -639.49 952.87 -758.28 916.85 -872.13 898.24 -940.93 900.3 -937.66 927.29 -862.93 979.46 -737.85 1054.75 -600.03 1147.76 -487.85 1247.26 -428.89 1344.32 -435.45 1426.68 -498.5 1482.39 -597.09 1504.99 -697.84 1490.67 -770.99 1444.1 -797.28 1372.86 -767.02 1290.97 -687.49 1218.37 -574.23 1169.61 -452.16 1159.02 -344.86 1193.72 -269.21 1271.02 -237.24 1379.85 -248.71 1499.08 -297.63 1607.03 -368.57 1680.91 -444.43 1704.86 -512.33 1674.63 -556.18 1598.06 -568.75 1498.02 -548.34 1400.57 -496.77 1334.9 -421.71 1323.86 -329.95 1374 -233.69 1476.89 -142.48 1606.54 -61.29 1730.06 1.85 1813.21 44.87 1832.64 67.81 1783.71 71.89 1682.04 61.14 1563.12 37.2 1465.62 6.75 1425.01 -25.52 1459.08 -59.67 1559.91 -88.95 1697.35 -111.25 1826.09 -128.52 1903.87 -136.73 1903.56 -136.32 1826.73 -129.57 1701.03 -115.41 1573.6 -95.4 1494.95 -70.75 1495.78 -42.47 1579.17 -12.12 1715.33 20.7 1853.7 53.78 1940.82 86.04 1942.66 119.25 1857.94 150.59 1720.02 179.45 1586.26 208.51 1510.67 234.67 1525.92 257.66Q1525.92 257.66 1525.92 257.66" opacity="0.26"></path><path d="M1414.91 604.02C1505.06 625.09 1634.64 647.72 1758.06 671.68 1833.88 695.39 1835.44 719.95 1763.13 744.75 1641.22 768.55 1510.11 791.6 1411.95 812.93 1377.01 832.01 1414.51 847.95 1509.75 859.57 1632.12 867.52 1740.61 869.79 1801.1 865.5 1795.45 857.02 1724.28 841.78 1608.72 820.06 1480.76 796.24 1376.25 768.4 1322.08 738.68 1330.57 712.9 1395.91 690.78 1496.65 676.05 1604.94 673.62 1688.59 684.56 1725 711.73 1704.65 755.44 1631.28 815.78 1522.59 891.02 1402.17 974.56 1297.38 1063.02 1229.27 1149.06 1209.64 1222.68 1239.22 1278.54 1307.09 1309.65 1397.24 1312.62 1486.27 1287.03 1554.1 1235.93 1587.3 1169.96 1577.02 1097.75 1525.31 1032.79 1440.13 990.7 1336.4 980.06 1230.85 1008 1137.56 1073.62 1070.52 1169.89 1036.48 1283.07 1037.3 1392.4 1068.95 1480.24 1122.67 1529.27 1190.08 1530.14 1257.34 1483.45 1313.79 1400.01 1353.1 1303.15 1367.66 1216.2 1356.07 1164.45 1319.42 1166.22 1261.44 1224.96 1188.41 1330.99 1105.09 1458.87 1020.15 1578.44 939.98 1658.24 867.66 1676.82 808.98 1630.08 765.67 1532.24 731.67 1368.06 749.35 1351.34 784.81 1534.15 814.32 1666.35 842.87 1753.65 868.2 1766.38 891.69 1701.62 909.13 1582.66 920 1453.83 926.36 1366.35 925.9 1354.46 919.33 1426.95 908.37 1559.05 892.47 1702.8 872.75 1803.41 849.98 1821.75 824.87 1750.68 798.46 1618.63 770.4 1481.77 742.2 1396.65 714.6 1401.35 686.33 1496.19 659.37 1642.56 634.15 1778.75 608.77 1845.78 585.45 1813.97 564.38 1695.94 543.31 1544.59 524.73 1427.15 508.48 1394.01 492.08 1458.69 477.7 1591.13 464.93 1733.11 451.48 1825.05 438.93 1827.05 426.58 1739.11 412.57 1596.95 397.58 1458.04 380.61 1376.4 360.58 1382 337.09 1469.43 309.05 1601.12 276.6 1725.69 238.42 1792.72 193.83 1776.89 144.73 1683.4 89.46 1545.54 28.57 1411.44 -34.16 1325.16 -99.68 1313.87 -165.7 1376.45 -227.34 1489.11 -284.1 1609.35 -332.51 1695.32 -368.8 1718.87 -391.52 1670.3 -398.31 1564.56 -389.6 1431.22 -365.02 1308.91 -326.26 1229.73 -279.66 1211.9 -227.76 1255.89 -176.91 1344 -136.37 1450.47 -110.3 1541.91 -105 1592.95 -124.74 1590.33 -170.06 1532.73 -239.52 1433.86 -326.13 1313.74 -422.93 1198.86 -519.25 1111.16 -601.88 1064.6 -661.81 1065.12 -690.25 1106.91 -683.83 1179.25 -643.75 1262.58 -576.74 1338.4 -497.47 1393.44 -419.33 1414.63 -359.04 1398.62 -332.2 1347.34 -346.1 1268.43 -402.74 1173.53 -494.01 1072.55 -605.74 979.54 -717.83 903.78 -833.02 836.61 -768.87 859.59 -624.65 923.38 -534.76 974.22 -479.37 1021.14 -476.17 1059.13 -529.73 1087.26 -629.68 1100.55 -753.42 1098.85 -869.61 1083.34 -949.53 1054.62 -971.72 1015.45 -931.24 966.77 -839.54 912.5 -723.47 855.56 -619.81 795.23 -559.61 736.16 -564 679.96 -634.53 624.42 -752.12 573.42 -882.61 527.23 -985.99 483.09 -1030.66 443.67 -1001.89 408.5 -909.9 375.09 -783.98 345.09 -666.24 317.83 -598.1 291.52 -602.81 267.1 -680.74 244.1 -806.28 221.35 -936.92 199.51 -1027.07 178.44 -1044.75 157.37 -983.76 137.3 -866.36 118.43 -680.74 91.35 -671.07 48.99 -844.77 36.61 -957.73 31.36 -1020.02 30.68 -1012.05 35.09 -936.34 41.54 -816.04 53.15 -687.6 69.68 -587.89 86.87 -545.15 107.3 -568.68 129.4 -649.66 148.1 -761.02 164.54 -868.7 175.81 -942.43 177.58 -959.38 169.33 -914.95 148.32 -819.99 113.51 -698.76 64.15 -581.12 0.44 -493.7 -73.13 -456.03 -155.16 -473.08 -240.6 -538.14 -320.7 -631.36 -391.39 -727.94 -445.47 -805.65 -476.79 -843.84 -482.65 -833.88 -461.54 -777.1 -418.26 -684.45 -357.17 -574.05 -287.54 -464.51 -223.98 -375.9 -175.82 -321.34 -154.69 -307.13 -168.84 -332.07 -219.57 -387.35 -303.52 -462.22 -408.26 -539.55 -519.87 -604.85 -619.82 -648.41 -689.23 -660.84 -716.72 -640.5 -696.43 -589.58 -635.01 -514.72 -545.72 -425.55 -450.48 -330.27 -376.5 -240.63 -343.08 -164.79 -363.89 -107.36 -438.36 -72.89 -552.51 -61.16 -680.93 -71.01 -790.98 -97.8 -856.15 -135.82 -858.71 -182.06 -799.93 -228.38 -697.22 -269.77 -582.68 -304.86 -495.74 -328.08 -465.15 -338.13 -505.85 -335.71 -608.97 -319.89 -745.52 -292.44 -873.62 -254.46 -951.65 -208.54 -954.94 -157.35 -882.36 -100.92 -761.96 -43.25 -636.9 13.7 -555.31 71.32 -551.37 125.83 -629.37 176.44 -763.98 225.38 -905.71 269.8 -1002.24 309.85 -1015.97 347.79 -942.46 381.82 -810.72 412.51 -674.73 441.66 -592.97 468.29 -600.15 493 -696.26 516.93 -842.41 539.66 -978 561.6 -1044.79 583.33 -1013.77 604.67 -897.39 625.74 -746.04 646.81 -628.01 667.37 -595.13 687.26 -660.05 706.95 -794.14 725.56 -937.36 742.67 -1028.03 759.01 -1028.56 773.13 -938.25 784.4 -795.21 794.13 -656.99 800.19 -578.75 801.99 -588.96 801.68 -681.43 796.66 -816.09 786.73 -938.15 775.13 -1000.61 759.26 -977.73 739.86 -878.36 721.14 -737.64 701.3 -605.87 682.27 -527.42 668.49 -526.45 659.54 -599.17 658.08 -715.92 667.14 -835.74 687.39 -914.52 720.56 -925.56 766.19 -864.51 824.52 -749.43 894.21 -615 970.2 -498.37 1050.62 -432.02 1130.42 -430.21 1202.01 -489.61 1261.83 -588 1304.17 -693.94 1324.91 -778.02 1322.37 -814.06 1296.28 -792.39 1251.77 -717.2 1192.89 -606.07 1127.76 -484.33 1046.09 -339.87 1030.35 -331.51 1121.88 -443.67 1214.8 -529.22 1319.1 -597.22 1420.24 -633.93 1501.79 -632.95 1552.33 -592.76 1563 -520.52 1533.33 -425.42 1468.89 -322.45 1382.79 -225.13 1295.82 -142.7 1225.88 -85.18 1191.04 -55.68 1203.02 -54.31 1262.4 -77.13 1360.5 -117.18 1477.48 -169.66 1590.3 -224.02 1674.16 -272.96 1710.01 -313.6 1690.32 -338.83 1620.05 -346.96 1519.56 -338.54 1414.63 -313.41 1335.12 -274.47 1306.14 -223.22 1337.68 -164.12 1425.1 -100.95 1546.47 -33.83 1670.64 31.84 1763.51 93.89 1798.94 153.85 1767.17 207.72 1677.5 255.22 1559.1 298.52 1447.89 335.64 1380.32 367.43 1380.48 395.55 1449.94 419.71 1569.07 441.04 1700.47 460.13 1802.62 477.83 1841.67 495.07 1804.89 511.32 1703.85 528.11 1572.44 546.02 1457.15 563.68 1397.23 582.95 1414.91 604.02Q1414.91 604.02 1414.91 604.02" opacity="0.32"></path><path d="M1303.94 173.02C1383.62 192.18 1498.99 211.2 1616.22 230.23 1702.75 249.48 1733.16 269.17 1699.66 289.75 1611.95 311.17 1494.24 334.28 1378.49 359.74 1294.7 386.92 1264.21 417.42 1292.9 451.92 1372.26 488.85 1479.2 530.43 1584.84 576.93 1662.9 625.6 1692.12 678.69 1665.57 735.52 1589.38 792.19 1481.43 850.14 1366.56 907.37 1269.28 959.54 1210.6 1006.66 1200.81 1045.85 1240.02 1074.12 1316.4 1090.33 1410.79 1092.5 1503.04 1081.38 1570.95 1056.32 1600.19 1018.67 1584.92 974.26 1527.11 924.72 1437.87 875.51 1332.06 835.18 1228.78 807.14 1144.61 797.39 1091.26 810.55 1075.73 847.66 1096.97 908.49 1149.67 987.52 1221.45 1079.35 1298.46 1174.77 1369.12 1261.15 1419.68 1329.83 1442.44 1371.18 1434.43 1379.56 1395.72 1354.02 1331.75 1298.27 1249.08 1224.17 1158.29 1143.35 1069.24 1071.87 989.09 1026.9 926.32 1018.22 884.91 1052.02 866.39 1125.14 870.15 1227.35 892.57 1341.4 930.76 1444.68 977.54 1518.42 1026.82 1546.96 1075.6 1525.09 1116.64 1457.96 1146.46 1361.58 1165.84 1223.36 1112.5 1212.48 1048 1366.08 993.7 1490.29 935.11 1593.31 874.96 1647.64 813.08 1639.01 753.58 1570.2 697.93 1461.2 644.92 1346.76 597.45 1261.11 555.65 1233.1 518 1274.59 485.83 1375.31 458.45 1506.59 434.79 1627.82 414.8 1701.79 397.56 1704.24 382.83 1635.13 369.61 1516.89 357.07 1389.69 345.88 1299.16 334.42 1276.81 322.08 1332.79 310.31 1449.03 297.08 1585.83 282.05 1694.79 267.16 1736.51 250.2 1695.28 231.05 1585.02 211.89 1447.02 190.76 1332.34 167.82 1282.03 145 1313.5 120.64 1413.74 95.1 1545.47 70.12 1662.72 44.55 1722.97 18.98 1705.96 -5.2 1617.75 -28.43 1488.09 -49.84 1359.99 -68.72 1273.96 -84.55 1256.51 -96.35 1310.15 -104.44 1416.29 -107.39 1538.07 -104.5 1635.91 -97.45 1679.94 -84.37 1655.15 -65.36 1569.29 -43.72 1446.28 -17.83 1321.22 10.84 1227.68 37.8 1188.74 63.6 1212.2 85.55 1287.47 99.27 1392.83 104.2 1496.4 97.68 1569.75 77.7 1594.29 43.73 1562.07 -4.68 1481.12 -65.01 1368.88 -136.08 1251.09 -214.38 1152.43 -293.19 1091.16 -368.99 1077.96 -435.68 1111.01 -486.59 1181.09 -518.31 1269.18 -527.2 1354.86 -513.2 1421.63 -477.28 1453.66 -423.41 1445.11 -360.65 1396.99 -295.57 1317.2 -238.01 1218.98 -199.15 1115.25 -184.95 1022.19 -200.83 951.17 -247.48 908.76 -321.3 898.46 -414.58 917.36 -514.21 961.1 -607.97 1019.56 -681.98 1082.62 -724.52 1143.53 -729.63 1191.45 -696.23 1220.8 -632 1229.6 -547.98 1215.56 -460.72 1180.9 -390.02 1128.02 -350.03 1062.25 -351.85 989.23 -398.18 911.66 -482.44 836.6 -590.27 767.92 -700.25 706.37 -791.47 656.04 -844.72 617.39 -848.97 589.7 -803.54 573 -718.72 565.47 -616.3 566.62 -519.98 573.62 -454.61 584.21 -438.87 599.22 -478.07 614.63 -565.25 628.9 -680.02 644.21 -795.23 656.57 -881.99 665.35 -918.07 673.53 -894.09 677.66 -815.92 677.75 -705.78 676.96 -592.79 672.4 -508.86 664.38 -479.16 655.8 -512.43 644.23 -600.88 629.95 -720.02 615.5 -836.37 598.66 -916.05 579.5 -935.51 560.34 -889.05 539.1 -791.02 515.72 -669.47 492.16 -558.93 466.15 -489.66 437.41 -479.94 408.11 -530.89 375.63 -626.73 339.68 -741.56 302.85 -842.51 262.28 -902.58 217.96 -906.6 173.06 -852.79 124.89 -755.26 74.11 -637.57 24.38 -528.61 -26.15 -453.47 -75.91 -428.23 -121.26 -456.64 -162.66 -529.01 -197.82 -627.68 -224.29 -726.82 -241.21 -802.81 -246.73 -839.05 -241.28 -825.99 -223.75 -766.64 -194.55 -672.43 -158.23 -562.53 -115.08 -458.03 -68.97 -355.25 -10.01 -406.98 25.91 -524.93 -20.39 -607.48 -79.26 -671.6 -156.19 -705.83 -245.58 -704.7 -337.14 -667.16 -423.57 -599.31 -494.73 -509.84 -541.05 -412.05 -557.62 -318.74 -541.51 -239.76 -496.79 -184.8 -429.44 -157.88 -350.81 -159.86 -277.7 -187.31 -222.4 -233.61 -198.16 -292.92 -213.48 -354.58 -268.77 -410.31 -358.15 -455.24 -466.45 -482.12 -576.51 -488.5 -667.91 -474.25 -722.29 -440.06 -729.74 -389.45 -688.43 -325.22 -609.74 -253.27 -511.2 -178.7 -417.5 -103.92 -355.07 -34.85 -340.66 25.61 -382.27 76.9 -472.69 116.34 -592.61 144.12 -713.56 160.76 -804.43 167.24 -842.74 165.54 -817.87 155.91 -738.38 141.63 -626.59 124.85 -516.02 104.7 -442.59 85.16 -429.42 67.59 -484.23 50.08 -592.88 36.2 -724.64 26.39 -839.91 18.21 -902.7 14.41 -893.55 14.76 -814.93 16.91 -694.24 22.74 -571.09 31.75 -488.47 42.04 -477.04 54.8 -541.98 69.53 -663 84.89 -798.52 101.62 -901.65 119.37 -935.07 137.28 -886.72 155.88 -773.04 175.04 -635.04 194.2 -524.76 213.69 -482.51 233.61 -522.28 253.7 -629.29 274.56 -763.22 296.51 -875.7 319.09 -927.92 343.37 -900.89 369.82 -804.77 397.56 -671.96 428.17 -547.19 462.15 -470.66 497.92 -465.69 537.53 -531.36 581.18 -643.46 626.45 -765.62 675.45 -856.38 727.72 -887.08 780.04 -848.29 833.98 -751.01 888.13 -624.12 938.92 -502.66 986.81 -420.58 1029.64 -397.89 1064.55 -438.15 1090.86 -526.33 1106.57 -634.95 1111.16 -734.42 1103.64 -795.2 1083.81 -801.24 1054.8 -750.54 1016.73 -654.88 972.46 -537.04 928.41 -422.12 886.49 -335.73 851.78 -293.89 830.69 -302.46 825.5 -355.55 839.73 -437.51 874.6 -530.26 929.43 -610.5 1001.77 -661.01 1084.9 -672.21 1173.43 -640.27 1259.02 -571.43 1331.61 -476.07 1384.78 -370.74 1411.88 -271.53 1410.08 -190.65 1379.64 -139.4 1324.56 -121.48 1255.14 -136.53 1180.61 -178.34 1113.76 -237.31 1068.52 -305.32 1052.94 -369.19 1073.11 -419.73 1128.63 -452.08 1213.39 -460.18 1315.88 -443.82 1419.17 -404.56 1507.66 -346.5 1565.88 -275.66 1583.59 -195.94 1558.01 -115.4 1494.04 -39.53 1406.64 29.57 1313.08 86.55 1234.46 130.03 1190.67 160.22 1192.42 176.8 1242.7 181.74 1332.72 175.76 1445.11 162.25 1556.23 144.08 1641.07 120.86 1681.13 97.3 1666.72 75.39 1602.41 53.32 1503.44 35.34 1394.87 22.14 1306.45 11.1 1260.9 5.33 1272.29 4.52 1339.73 6.15 1447.19 12.1 1567.63 21.66 1669.1 32.94 1724.78 46.87 1718.88 62.77 1653.43 79.5 1545.77 97.39 1426.14 115.98 1330 134.78 1284.48 153.85 1303.92 173.01Q1303.94 173.02 1303.94 173.02" opacity="0.71"></path><path d="M1192.94 606.89C1262.49 624.13 1363.41 639.93 1471.47 654.2 1562.41 668.31 1614.32 680.58 1615.86 690.7 1567.28 700.26 1479.46 707.17 1372.2 711.04 1268.28 713.85 1189.98 713.12 1152.78 708.56 1219.05 696 1402.89 668.46 1552.85 629.53 1554.33 597.2 1401.54 570.69 1202.31 565.73 1084.1 597.33 1114.88 670.77 1255.99 788.02 1410.99 926.53 1472.68 1066.85 1404.38 1171.36 1239.4 1206.46 1062.07 1161.79 951.54 1051.57 945.54 934.65 1030.22 866.34 1150.48 900.83 1253 1039.8 1285.63 1230.46 1238.16 1378.6 1124.01 1401.98 979.15 1290.87 841.99 1120.55 734.82 1024.74 677.68 1084.83 666.93 1280.78 695.94 1474.9 744.78 1525.19 795.49 1390.64 845.35 1195.81 876.5 1117.86 886.73 1246.25 882.39 1475.43 860.31 1598.97 826.65 1497.01 806.76 1387.43 785.5 1275.08 763.55 1191.87 740.51 1163.01 717.55 1197.31 695.16 1286.97 672.33 1407.23 650.54 1524.47 630.12 1604.56 609.59 1623.79 590.63 1575.82 573.39 1474.02 556.15 1349.61 540.83 1240.18 527.3 1177.71 513.67 1179.97 501.63 1244.97 490.88 1352.4 474.49 1519.46 442.38 1557.07 423.99 1407.1 392.61 1190.97 350.82 1153.26 292.59 1313.73 219.8 1511.92 127.4 1553.22 17.78 1400.36 -92.68 1178.87 -199.79 1066.88 -285.42 1134.95 -331.29 1314.58 -329.12 1450.22 -275.1 1437.28 -191.08 1280.02 -97.55 1079.17 -32.74 951.43 -34.61 955.47 -114.59 1068.44 -262.3 1206.95 -427.76 1294.36 -555.48 1276.21 -590.2 1164.14 -520.39 998.53 -381.45 843.57 -252.38 742.95 -219.98 712.64 -315.09 746.28 -500.85 814.53 -672.71 897.64 -731.59 960.46 -638.66 989.27 -464.71 985.22 -334.37 946.44 -355.31 885.07 -524.73 805.33 -725.04 721.5 -804.61 642.37 -774.07 601.96 -701.63 564.1 -602.77 529.1 -500.56 494.26 -416.98 462.42 -371.81 433.63 -376.77 405.04 -431.25 379.36 -523.92 356.55 -633.71 333.82 -735.5 313.82 -805.05 296.58 -825.59 279.34 -792.16 265.05 -713.43 253.73 -607.84 242.48 -499.93 234.33 -413.99 229.33 -368.66 224.54 -373.13 223.04 -424.86 224.81 -512.22 226.74 -614.25 231.79 -708.17 239.68 -798.91 253.78 -708.83 273.73 -508.82 290.91 -342.62 289.73 -323.92 267.28 -449.41 211.58 -623.63 123.02 -716.13 1.94 -665.03 -137.79 -498.35 -262.66 -312.77 -351.29 -205.15 -374.14 -220.15 -326.69 -332.69 -223.06 -468.38 -106.79 -557.6 -44.04 -548.68 -73.22 -447.48 -205.8 -289.48 -389.51 -133.86 -545.53 -26.31 -590.32 12.44 -503.31 -16.1 -340.87 -85.64 -219.49 -173.94 -242.42 -244.26 -411.46 -278.76 -621.86 -274.78 -720.71 -230.15 -636.85 -157.43 -440.64 -62.97 -313.04 36.56 -376.75 130.73 -594.38 222.77 -774.34 300.98 -753.14 365.58 -550.34 395.68 -444.7 422.94 -375.17 447.75 -362.74 471.52 -412.74 493.43 -512.5 513.88 -635.2 533.81 -746.06 552.75 -813.67 570.97 -817.68 589.05 -756.98 606.67 -648.44 623.91 -524.03 641.15 -422.2 657.81 -373.32 673.78 -390.79 689.62 -469.13 704.51 -583.78 718.16 -700.64 731.3 -786.91 742.73 -817 752.02 -783.12 760.28 -694.88 765.83 -576.66 768.24 -460.42 768.68 -345.11 754.35 -452.14 724.87 -661.87 693.26 -770.84 654.97 -670.47 620.27 -450.37 607.31 -290.51 620.95 -312.67 673.59 -476.01 764.71 -641.22 890 -667.93 1031.45 -536.24 1194.07 -255.25 1132.24 -344.33 965.31 -511.94 909.3 -501.26 943.42 -385.62 1073.36 -219.36 1325.23 -11.79 1303.81 -39.73 1091.81 -164.3 1071.46 -224.94 1192.07 -240.12 1391.56 -211.98 1542.32 -147.26 1546.08 -59.51 1399.34 35.36 1218.79 136.85 1145.18 228.28 1249.22 305.88 1349.8 342.95 1457.69 376.49 1550.1 406.75 1606.89 435.96 1615.6 462.39 1573.68 486.41 1491.15 509.87 1385.83 531.43 1281.96 551.38 1204.95 571.17 1172.4 589.65 1192.94 606.89Q1192.94 606.89 1192.94 606.89" opacity="0.95"></path><path d="M1081.94 252.43C1229.19 283.08 1415.24 322.19 1508.92 370.25 1448.26 419.46 1274.06 479.4 1101.87 550.5 1037.93 622.62 1115.61 703.59 1276.06 788.49 1419.76 863.77 1454.67 929.06 1362.17 972.56 1190.68 986.58 1029.78 966.05 954 909.97 990.5 837.29 1108.59 758.46 1241.39 700.38 1328.13 693.12 1323.97 747.91 1232.71 866.18 1085.43 1017.13 935.09 1162.75 826.17 1251.57 781.9 1249.71 805.26 1158.75 874.44 1019.91 967.26 912.4 1047.34 896.43 1093.49 999.95 1099.4 1178.89 1060.84 1345.73 989.2 1405.39 892.56 1325.01 788.61 1156.8 689.78 1018.04 596.66 1017.45 520.62 1166.48 461.57 1370.54 414.81 1482.49 380.88 1420.25 354.72 1230.79 334.95 1072.97 316.64 1079.43 296.17 1255.33 277.15 1455.31 252.96 1508.21 222.31 1363.02 191.65 1150.28 155.27 1059.83 114.58 1164.82 75.35 1371.54 34.84 1497.94 -3.19 1440.06 -46.26 1155.15 -52.3 1253.39 -1.5 1441.44 44.2 1384.32 96.35 1208.37 142.66 1025.99 163.98 940.15 153.67 990.85 100.53 1129.7 7.13 1272.22 -118.57 1329.13 -255.24 1271.91 -368.28 1125.1 -433.73 955.31 -429.63 828.94 -360.88 783.22 -248.8 822.67 -137.71 914.37 -82.65 1022.78 -112.62 1099.32 -231.28 1121.07 -396 1084.6 -543.79 998.61 -607.63 886.42 -559.18 762.15 -423.27 651.25 -274.24 564.45 -204.21 501.18 -259.08 465.02 -420.08 448.35 -597.83 448.36 -690.14 454.98 -638.04 460.67 -395.08 471.79 -452.22 447.81 -694.05 407.71 -693.11 377.05 -545.38 335.39 -357.07 283.4 -255.23 231.65 -304.13 170.56 -462.64 102.77 -625.86 39.27 -683.59 -24.12 -601.54 -79.75 -427.62 -118.7 -261.97 -136.99 -191.25 -126.85 -245.06 -93.18 -382.19 -34.08 -520.85 39.85 -590.19 101.72 -550.3 138.86 -421.58 128.1 -255.48 59.13 -119.77 -63.01 -58.22 -215.28 -82.89 -350.84 -171.1 -432.4 -279.29 -426.88 -371.01 -340.7 -408.2 -209.17 -382.03 -98.54 -299.08 -77.49 -180.89 -168.51 -54.76 -342.93 62.84 -513.71 150.15 -594.13 202.22 -535.67 220.33 -380.64 210.89 -229.66 185.77 -194.97 147.23 -314.37 110.71 -516.49 82.92 -663.01 52.82 -565.65 63.33 -321.47 94.1 -601.95 118.48 -713.05 146.61 -625.77 177.26 -413.04 207.91 -267.8 240.36 -317.53 275.68 -511.43 312.62 -681.3 355.44 -678.79 406.77 -509.17 463 -307.86 530.83 -230.94 611.01 -325.57 694.42 -512.32 785.37 -641.43 877.04 -618.4 955.29 -457.19 1016.53 -264 1048.76 -156.25 1047.03 -188.54 1008.59 -325.66 938.23 -472.7 859.34 -544.32 786.77 -494.25 747.66 -350.56 765.33 -175.52 844.59 -46.28 976.48 -4.23 1124.85 -52.85 1251.32 -156.37 1312.21 -263.47 1286.87 -337.9 1185.3 -347.08 1051.12 -292.6 954.3 -187.29 944.09 -59.6 1040.75 63.39 1206.74 169.82 1368.86 242.15 1445.17 281.26 1396.94 290.89 1251.26 280.05 1094.63 260.39 1029.85 231.1 1102.19 206.91 1277.22 192.59 1447.57 179.3 1505.54 178.18 1409.79 188.67 1227.56 200.31 1082.91 221.77 1081.92 252.42Q1081.94 252.43 1081.94 252.43" opacity="0.76"></path><path d="M970.94 460.24C1094.59 487.06 1261.04 503.92 1378.48 510.94 1386.68 517.73 1280.74 514.59 1117.3 502.5 975.82 491.9 922.99 475.91 976.18 459.28 1106.35 452.83 1245.61 456.15 1329.12 477.36 1322.05 521.02 1225.2 590.17 1078.86 685.1 934.18 792.56 842.2 906.32 826.06 1007.99 883.84 1075.04 985.71 1095.98 1091.51 1061.48 1170.37 984.28 1193.28 881.75 1156.43 788.25 1068.47 745.19 951.3 772.89 830.46 876.65 722.45 1026.01 646.63 1174.94 607.43 1266.14 603.88 1262.33 628.19 1165.46 668.2 1019.97 720.03 905.07 767.92 881.75 804.84 975.28 839.97 1224.61 820.08 1218.88 779.47 984.1 745.4 941.61 709.82 1042.06 675.61 1227.4 640.28 1376.34 608.64 1388.73 581.82 1252.02 555 1062.57 533.64 952.62 516.73 992.96 498.69 1153.73 482.8 1322.28 466.28 1388.21 444.9 1311.25 418.05 1138.63 381.69 974.05 335.42 907.75 275.34 970.17 199.96 1114.68 116.56 1259.86 23.34 1321.14 -72.51 1268.67 -156.56 1126.5 -223.62 960.81 -261.41 840.93 -263.55 808.15 -227.64 865.62 -158.01 976.53 -75.55 1095.99 4.78 1170.45 57.59 1175.1 59.29 1109.14 2.9 992.63 -107.61 859.33 -245.09 734.94 -376.82 648.18 -462.53 607.5 -474.31 612.08 -408.32 650.58 -287.57 705.7 -165.14 770.33 -90.16 824.32 -102.74 859.91 -205.91 879.8 -362.63 877.61 -507.94 857.88 -576.27 824.7 -536.25 782.23 -405.11 736.41 -252.03 685.6 -153.98 637.48 -167.49 595.08 -290.23 551.84 -459.4 516.28 -583.05 489.45 -591.5 462.63 -480.52 445.19 -313.31 436.19 -177.82 426.34 -142.92 422.99 -220 423.22 -367.65 418.45 -506.18 411.24 -567.57 395.77 -524.31 366.85 -394.97 321.41 -237.21 255.06 -112.9 172.99 -69.2 73.68 -113.14 -34.98 -222.21 -134.14 -345.19 -215.4 -433.26 -261.34 -457.33 -262.01 -406.08 -215.18 -298.11 -129.18 -161.27 -34.25 -34.13 45.43 55.62 76.27 94.76 36.48 81.61 -71.43 30.41 -222.55 -45.86 -365.14 -121.67 -452.5 -180.07 -447.67 -215.6 -355.73 -218.15 -216.04 -190.97 -97.78 -138.28 -69.2 -68.25 -152.31 9.53 -317.13 94.21 -481.31 174.51 -561.23 246.41 -510.1 314.71 -360.66 372.42 -200.84 420.55 -134.2 464.82 -210.43 502.17 -386.86 534.62 -552.96 565.84 -598.66 594.47 -491.47 621.29 -302.03 648.11 -165.27 672.49 -174.9 693.51 -318.5 713.3 -498.55 727.42 -591.15 733.74 -538.34 736.18 -374.03 728.16 -199.6 708.52 -115.52 685.27 -163.96 652.61 -307.26 614.41 -456.55 583.11 -530.44 558.4 -485.29 549.74 -346.48 566.6 -177.06 611.91 -54.18 688.77 -22.43 788.51 -85.7 904.24 -204.77 1018.9 -322.46 1108.47 -394.55 1158.45 -388.79 1154.46 -310.58 1099.85 -181.93 1006.19 -42.57 901.01 72.99 824.72 145.87 803.33 164.85 855.33 139.14 971.33 78.81 1120.29 7.81 1253.28 -55.61 1321.16 -106.5 1299.31 -130.33 1194.66 -127.51 1056.55 -102.25 944.68 -57.92 916.55 -2.82 993.08 62.46 1144.41 128.14 1302.42 189.31 1389.84 251.99 1362.84 306.61 1232.66 352.05 1070.75 397.27 962.49 433.42 970.94 460.24Q970.94 460.24 970.94 460.24" opacity="0.31"></path><path d="M859.91 438.56C960.91 461.55 1102.74 492.64 1226.57 531.18 1285.54 569.37 1255.36 614.15 1150.1 663.73 1008.57 710.67 882.39 758.79 813.21 803.97 820.83 840.17 897 866.28 1010.38 876.86 1124.79 871.47 1199.15 846.3 1211.91 801.2 1160.44 747.02 1058.81 684.93 934.94 626.43 815.41 589.41 728.21 580.8 687.01 611.51 694.98 682.24 743.33 787.47 814.95 911.55 896.79 1026.22 966.59 1109.79 1012.02 1138.85 1029.47 1106.07 1014.11 1018.88 971.17 903.18 905.21 803.07 826.18 752.45 743.28 778.19 658.19 878.46 581.13 1024.06 515.22 1164.29 457.62 1244.43 412.47 1233.37 377.75 1133.16 350.57 990.64 329.99 867.76 312.94 825.7 299.44 890.07 285.92 1034.49 270.36 1192.29 255.62 1285.31 237.14 1265.99 214.15 1140.94 191.16 976.53 164.21 858.77 134.17 844.98 104.96 939.83 74.35 1091.34 44.49 1223.23 18.18 1274.97 -3.81 1220.89 -18.34 1088.04 -25.33 932.54 -21.01 819.76 -3.24 789.99 22.81 849.44 61.02 966.49 108.37 1090.24 153.52 1176.39 195.91 1189.89 226.44 1128.81 233.95 1011.62 215.09 875.25 164.75 757.08 86.43 682.02 -14.94 665.04 -126.9 699.89 -228.66 774.34 -305.7 861.71 -340.82 939.03 -326.75 994.57 -265.16 1013.12 -169.56 994.87 -69.62 943.85 9.72 869.35 40.68 783.54 7.42 690.57 -85.67 604 -216.93 529.33 -347.15 464.21 -438.3 414.33 -458.89 377.5 -402.68 350.28 -287.48 331.34 -154.81 316.7 -58.43 306.51 -35.01 296.05 -98.53 282.77 -226.91 270.49 -371.07 253.32 -472.07 230.33 -487.32 207.34 -410.66 179.08 -275.71 146.58 -135.55 115.08 -44.35 81.42 -33.13 48.26 -103.39 19.54 -223.84 -4.1 -347.54 -18.59 -432.81 -23.46 -447.41 -14.42 -388.61 10.86 -274.67 45.68 -141 93.4 -25.43 148.63 44.67 196.7 54.22 234.55 8.88 250.13 -76.86 232.96 -173.84 180.19 -255.86 91.75 -307.11 -18.44 -312.92 -137.39 -274.74 -241.96 -199.37 -306.94 -101.61 -318.65 2.02 -270.74 101.84 -179.72 182.93 -68.94 239.9 24.3 272.29 61.44 280.65 25.67 271.03 -80.98 245.35 -225.23 213.23 -361.01 181.06 -437.31 146.56 -424.4 119.22 -326.58 100.89 -184.06 86.02 -64.18 80.69 -21.07 83.76 -81.69 89.75 -222.46 101.97 -380.73 118.83 -480.13 136.58 -470.88 157.28 -355.45 180.27 -191.04 203.26 -65.99 227.99 -44.34 255.02 -132.81 282.94 -286.07 314.84 -423.72 352.21 -479.22 392.5 -428.29 440.41 -294.43 496.99 -138.94 557.02 -25.76 625.19 0.26 699.53 -63.02 771.55 -186.4 842.51 -313.26 905.94 -393.03 953.31 -398.26 981.59 -325.37 984.64 -201.32 963.1 -61.68 916.23 51.09 849.29 111.01 778.55 109.1 712.35 54.23 667.11 -30.31 659.06 -124.26 693.56 -197.92 771.96 -235.75 881.13 -233.58 1003.7 -190.74 1113.39 -118.29 1182.67 -24.36 1195.4 74.37 1145.79 166.29 1050.73 249.14 935.79 313.16 838.69 358.39 796.75 387.64 826.31 402.36 924.56 407.87 1061.23 404.4 1192.66 398.87 1271.79 395.28 1269.44 389.05 1185 388.41 1049.4 394.99 918.99 401.23 844.66 415.57 859.91 438.56Q859.91 438.56 859.91 438.56" opacity="0.52"></path><path d="M748.92 270.04C828.56 289.2 942.71 302.37 1057.6 310.16 1143.22 318.5 1174.32 322.64 1144.34 324.18 1062.09 328.38 949.23 332.95 834.22 340.8 742.36 355.44 694.03 377.85 696.04 411.19 745.58 454.99 826.84 511.99 919.06 582.18 1005.11 658.59 1063.95 741.47 1085.4 824.17 1067.39 895.19 1012.75 950.16 932.32 979.99 836.14 979.94 739.83 948.13 655.09 887.03 587.83 810.63 545.23 728.67 527.21 658.99 532.57 621.86 555.96 626.6 590.59 679.35 634.88 772.34 679.07 890.11 718.24 1007.48 754.22 1094.75 779.89 1131.33 794.76 1105.07 802.46 1024.59 800.23 910.57 790.09 797.67 774.59 725.28 754.22 716.88 731.23 780.35 705.8 897.74 680.2 1032.83 655.95 1139.92 631.11 1181.01 608.79 1140.26 589.64 1030.01 562.71 834.68 523.81 800.91 507.53 973.06 494.39 1088.39 479.27 1153.22 460.01 1148.53 435.39 1076.95 403.6 960.55 362.7 833.81 314.63 728.79 256.59 672.61 189.15 674.21 118.52 729.68 43.8 818.85 -30 915.96 -94.16 1000.66 -146.06 1049.82 -178.83 1054.9 -188.23 1016.4 -171.94 942.15 -129.79 847.23 -70.15 743.45 2.24 648.69 75.8 573.57 133.6 522.07 166.91 498.34 164.98 498.78 123.57 520.92 46.18 556.21 -56.96 596.9 -166.26 642.69 -263.13 683.23 -326.72 715.03 -342.77 741.77 -306.91 757.22 -225.86 762.31 -121.66 761.42 -17.95 752.58 56.89 738.18 79.48 720.56 42.74 700.35 -46.66 679.42 -165.33 657.66 -281.43 636.82 -361.07 617.66 -380.51 598.5 -333.98 581.48 -236.8 565.93 -116.13 549.55 -5.38 532.99 67.19 514.48 84.82 492.75 46.01 466.11 -35.46 432.25 -139.78 392.41 -237.59 342.94 -305.64 283 -330.81 218.01 -306.25 145.09 -239.12 67.84 -141.99 -4.29 -34.65 -70.13 63.99 -121.81 140.86 -151.78 184.42 -156.58 192.81 -132.5 167.73 -84.8 118.35 -16.34 56.16 62.32 -12.21 132.13 -72.45 182.48 -117.07 198.38 -144.7 170.69 -149.99 100.21 -134.77 -4.42 -101.44 -121.47 -53.92 -229.22 2.28 -301.78 66.39 -320.5 131.25 -279.94 193.23 -188.98 254.84 -76.29 310.06 27.64 358.22 88.43 403.46 82.34 441.98 8.38 474.72 -114.31 505.37 -246.73 531.87 -346.67 555.23 -378.46 577.97 -330.72 598.75 -218.04 617.9 -80.04 637.06 30.23 654.15 72.96 668.72 35.69 682.68 -67.58 692.94 -197.03 698.42 -307.05 701.81 -363.15 698.78 -345.62 688.3 -262.45 674.89 -138.74 653.7 -12.24 625.29 82.29 596.51 122.61 564.02 101.66 531.37 31.49 506.61 -68.78 489.63 -167.99 485.83 -241.04 500.13 -273.85 533.94 -257.29 588.98 -197.55 661 -105.26 747.56 0.61 841.04 102.12 928.34 188.33 1001.63 246.46 1049.33 273.94 1063.57 271.53 1041.34 245.08 984.41 203.6 905.71 150.43 816.93 98.08 736.89 53.13 686.86 14.39 677.9 -10.24 717.11 -20.85 799.2 -21 909.49 -9.38 1024.62 10.72 1116.91 37.62 1164.88 68.54 1154.64 100.46 1089.45 135.05 984.34 167.69 867.46 196.66 774.07 226.18 729.48 250.88 748.92 270.04Q748.92 270.04 748.92 270.04" opacity="0.60"></path><path d="M637.92 596.72C785.13 627.38 967.7 667.64 1059.35 710.42 1006.48 745.19 843.14 766.7 670.24 759.74 573.54 728.5 592.7 661.17 694.93 569.75 829.27 498.67 921.93 468.4 940.89 518.22 887.14 647.38 780.6 823.2 658.14 968.37 533.65 1002.82 435.75 903.76 367.91 726.71 321 606.52 293.16 636.33 272.24 816.43 257.5 1011.51 237.37 1064.2 206.72 919.01 176.06 706.26 136.35 614.12 93.27 708.31 56.39 904.85 28.47 1035.01 22.26 1005.43 36.98 840.34 84.41 651.13 161.65 544.95 236.87 562.2 299.41 670.85 312.99 795.16 253.85 886.55 124.85 898.76 -41.4 842.47 -175.55 735.83 -222.19 614.95 -147.96 507.1 2.46 407.78 148.35 335.39 189.39 284.33 85.92 240.72 -102.86 206.24 -250.07 175.58 -249.08 144.93 -102.04 119.56 84.26 105.36 193.76 98.61 166.41 115.22 37.62 161.42 -116.81 216.15 -201.11 286.56 -179.26 345.96 -64.86 355.03 90.73 298.84 229.35 167.29 336.2 -69.69 244.58 -36.28 168.75 187.2 129.09 194.35 114.02 46.77 119.56 -161.59 130.54 -267.64 153.41 -181.77 184.06 30.95 214.71 176.19 251.7 129.77 298.53 -53.45 350.79 -221.76 421.62 -234.16 514.4 -91.52 613.14 107.99 724.04 234.55 827.36 232.05 894.08 118.82 909.78 -20.65 857.26 -109.66 758.81 -119.32 639.56 -45.07 557.07 73.23 567.14 211.89 678.93 329.71 855.83 414.07 1007.09 474.16 1051.89 508.42 954.21 531.47 779.74 546.49 638.91 566.08 637.92 596.72Q637.92 596.72 637.92 596.72" opacity="0.81"></path><path d="M526.92 173.77C627.92 196.76 766.85 218.43 885.79 242.16 945.45 270.5 922.01 309.31 830.5 365.22 700 433.2 572.59 522.13 480.36 626.93 437.22 725.74 445.81 812.17 490.35 861.75 561.35 858.94 632.48 798.08 688.62 689.63 732.9 576.89 752.31 493.82 750.87 484.09 736.67 563.2 711.16 708.31 681.94 861.76 649.27 951.59 619.73 933.02 596.74 808.01 573.75 643.59 558.4 525.47 547.71 506.69 533.58 590.96 517.27 728.93 491.63 853.56 453.23 919.66 395.96 898.44 316.25 806.9 224.67 673.8 120.55 543.73 19.41 447.47 -55.25 394.74 -91.09 389.18 -71.89 415.01 -3.59 466.04 103.18 518.84 216.84 560.43 291.5 599.75 301.85 620.49 233.32 623.83 105.51 623.96 -38.07 611.54 -139.07 588.55 -154.32 565.56 -77.84 533.1 54.25 489.62 193.59 442.93 290.11 380.37 318.27 301.22 275.46 219.8 185.82 129.13 84.47 42.66 -7 -18.6 -57.92 -46.06 -62.45 -23.48 -25.58 42.63 43.15 145.44 125.97 254.61 218.96 322.23 304.23 322.85 375.17 239.93 440.08 98.46 490.07 -52.59 527.98 -145.75 562.76 -135.89 590.76 -22.46 613.75 141.94 636.74 266.99 653.63 290.26 662.21 209.33 667.65 64.75 659.48 -67.28 634.41 -129.56 603.31 -102.99 555.9 0.68 498.34 137.35 450.95 269.74 415.22 357.87 408.48 390.82 443.14 371.37 521.32 317.94 636.73 254.57 762.02 185.19 872.28 134.12 931.94 105.98 920.62 89.91 837.2 92.92 706.72 107.94 583.49 127.56 511.67 150.78 526.92 173.77Q526.92 173.77 526.92 173.77" opacity="0.83"></path><path d="M415.92 612.76C563.13 643.42 738.67 652.62 825.05 624.17 790.43 577.82 658.82 484.1 510.66 381.63 377.34 350.23 297.99 424.36 259.41 608.48 244.01 789.87 230.61 842.19 199.96 697.01 146.81 436.55 87.81 695.4 196.71 783.94 304.69 715.85 403.79 597.97 415.94 491.28 307.09 383.95 119.13 313.69 -28.07 283.03 -27.08 252.37 118.53 264.22 297.3 318.43 420.17 372 437.17 442.05 382.21 469.99 282.63 405.91 203.18 244.18 167.46 50.81 146.68 -42.73 157.95 40.21 188.6 252.94 219.25 398.18 266.38 358.32 340.29 199.4 429.12 37.73 556.42 -3.88 696.16 67.67 791.31 210.32 806.81 351.87 706.41 451.34 550.11 532.91 416.91 582.11 415.92 612.76Q415.92 612.76 415.92 612.76" opacity="0.91"></path></g></svg>